# xmcd CD database file
#
# Track frame offsets:
#	150
#	30702
#	50820
#	70017
#	86704
#	107356
#	130849
#	154434
#	178662
#	198066
#	221544
#	240392
#
# Disc length: 3647 seconds
#
# Revision: 0
# Processed by: cddbd v1.5PL3 Copyright (c) Steve Scherf et al.
# Submitted via: CDex 1.51
#
DISCID=a00e3d0c
DTITLE=Bernd Scholl - Mystic Voyage
DYEAR=2000
DGENRE=New Age
TTITLE0=Voices In The Wind
TTITLE1=Roof Of The World
TTITLE2=Shamanic Journey
TTITLE3=Mystic Places
TTITLE4=Across Distant Lands
TTITLE5=Whales In Dreamtime
TTITLE6=Behind The Himalaya
TTITLE7=Path To A New Century
TTITLE8=Marrakesh Market
TTITLE9=Tibetan Ritual Ceremony
TTITLE10=Tribal Dance
TTITLE11=Mystery Road
EXTD=YEAR: 2000
EXTT0=
EXTT1=
EXTT2=
EXTT3=
EXTT4=
EXTT5=
EXTT6=
EXTT7=
EXTT8=
EXTT9=
EXTT10=
EXTT11=
PLAYORDER=
